<?xml version="1.0" encoding="UTF-8"?>
<svg width="200px" height="53px" viewBox="0 0 200 53" version="1.1" xmlns="http://www.w3.org/2000/svg" xmlns:xlink="http://www.w3.org/1999/xlink">
    <title>logo-white</title>
    <g id="Page-1" stroke="none" stroke-width="1" fill="none" fill-rule="evenodd">
        <g id="logo-white" fill="#FFFFFF" fill-rule="nonzero">
            <path d="M10.91935,11.34775 L10.91935,34.455525 C10.91935,40.849225 13.0519,44.046575 17.31405,44.046575 C21.616675,44.046575 23.76995,40.849225 23.76995,34.455525 L23.76995,11.34775 L34.69225,11.34775 L34.69225,33.791375 C34.69225,46.38045 28.798,52.6745 17.012075,52.6745 C5.67135,52.6745 3.55271368e-15,46.299525 3.55271368e-15,33.5496 L3.55271368e-15,11.34775 L10.91935,11.34775 Z" id="Path"></path>
            <polygon id="Path" points="37.3495 11.34775 48.1485 11.34775 48.1485 28.6016 48.268 28.6016 50.56325 24.681 58.70575 11.34775 72.099 11.34775 59.18825 28.6608 72.5825 52.01135 59.97375 52.01135 51.406 35.53905 48.1485 39.703525 48.1485 52.01135 37.3495 52.01135"></polygon>
            <path d="M107.5995,37.4103 C107.5165,35.1988 107.4555,32.68435 107.416,29.8679 C107.3745,27.33575 107.35675,24.39775 107.35675,21.0605 L107.17525,21.0605 C106.57325,23.555 105.8685,26.33 105.06325,29.386325 C104.34,32.00145 103.6155,34.53465 102.89125,36.98695 L98.84925,51.1668 L90.34275,51.1668 L86.96475,36.98695 C86.44075,34.8988 85.87825,32.38335 85.27425,29.446525 C84.71075,26.7525 84.18875,23.95575 83.70625,21.0605 L83.58475,21.0605 L82.98175,37.4103 L82.31875,52.01055 L72.30325,52.01055 L74.8365,11.348 L89.498,11.348 L92.1525,22.3265 C92.7555,24.66125 93.319,27.07525 93.843,29.5689 C94.444,32.261975 94.94725,34.796175 95.35,37.16755 L95.5315,37.16755 L97.34025,29.446525 C98.06475,26.50975 98.68725,24.097 99.2105,22.206 L102.28725,11.348 L116.5865,11.348 L118.63825,52.01055 L108.079,52.01055 L107.5995,37.4103 Z" id="Path"></path>
            <path d="M190.04275,11.34775 L190.04275,20.999 C190.04275,27.35725 190.324,33.0463 190.8885,38.07425 L190.706,38.07425 C189.74075,35.53905 188.73625,33.06505 187.68825,30.65225 C186.48325,28.0381 185.35625,25.7655 184.31225,23.83525 L177.8555,11.34775 L173.2775,11.34775 C173.2735,11.35175 173.2705,11.35575 173.2665,11.3595 C176.96625,11.486 177.582,12.607 177.582,12.607 C177.582,12.607 172.62325,14.76125 165.6245,25.204 C166.5225,25.25225 169.41,25.5385 170.10775,25.96875 C170.10775,25.96875 167.918,29.172975 165.00475,32.41275 L165.00475,52.01135 L174.96,52.01135 L174.96,41.995925 C174.96,34.997275 174.81975,28.945025 174.5385,23.83525 L174.7795,23.83525 C175.6635,26.1295 176.77075,28.64305 178.09825,31.377575 C179.18275,33.7509 180.349,36.123275 181.5955,38.495625 L188.536,52.01135 L200,52.01135 L200,11.34775 L190.04275,11.34775 Z" id="Path"></path>
            <path d="M161.06225,9.485 C161.09675,9.484 161.13225,9.478 161.16775,9.477 C161.16775,9.477 161.12725,9.48 161.06225,9.485" id="Path"></path>
            <path d="M149.87825,18.34525 C149.87825,18.34525 154.772,19.4435 159.93825,15.72225 C159.93825,15.72225 157.3695,19.24625 153.26425,21.666 C153.26425,21.666 156.00275,23.0455 157.31425,22.30725 C157.31425,22.30725 155.38775,25.182 153.33725,26.89425 C154.27375,26.80825 154.9635,26.95425 154.9635,26.95425 C154.9635,26.95425 153.944,26.836 152.82,28.493825 C152.8575,28.8708 152.88625,29.248775 152.88625,29.633625 C152.88625,29.9958 152.8645,30.356 152.84075,30.7162 C154.01325,30.774425 156.11225,29.906975 156.11225,29.906975 C154.82625,30.5208 153.4655,32.00895 152.47375,33.262225 C151.16225,39.129975 146.74225,43.956575 140.608,43.956575 C133.24225,43.956575 127.269,37.000375 127.269,29.633625 C127.269,23.14625 130.403,17.74525 136.182,16.54725 L136.182,16.54325 C136.182,16.54325 140.3385,13.1495 146.81725,11.755 C146.81725,11.755 143.0445,13.785 143.0445,15.72225 C143.0445,15.72225 151.702,9.9285 161.06225,9.4845 C160.17,9.56225 153.5325,10.39825 149.87825,18.34525 M181.64475,-1.0658141e-14 C171.06975,1.189 163.34275,4.51375 163.34275,4.51375 C163.18975,2.85175 164.532,2.25775 164.532,2.25775 C156.33225,3.68375 152.17275,7.36675 152.17275,7.36675 C151.936,5.22825 153.2435,3.80225 153.2435,3.80225 C143.89125,5.02775 136.12975,9.37875 135.18725,9.9235 C130.84225,10.77125 127.31925,12.7805 124.644,15.9935 C121.3855,19.8945 119.757,25.0035 119.757,31.3162 C119.757,37.2313 121.3855,42.1181 124.644,45.97665 C128.22325,50.202275 133.09125,52.313125 139.24425,52.313125 C145.27875,52.313125 150.1655,50.202275 153.90575,45.97665 C156.49225,43.069425 158.13125,39.5849 158.84775,35.538875 C162.9165,31.2846 165.8395,27.44875 165.8395,27.44875 C162.1545,27.685625 160.18475,27.44875 160.18475,27.44875 C164.157,19.84325 173.5645,13.42775 173.5645,13.42775 C171.187,13.8225 166.79075,15.44775 166.79075,15.44775 C169.167,10.81375 177.12875,5.94075 177.12875,5.94075 C171.91925,6.297 167.456,7.83825 167.42625,7.84725 C171.7605,4.80675 175.7305,2.698 178.36625,1.43875 C180.3715,0.54275 181.64475,-1.0658141e-14 181.64475,-1.0658141e-14" id="Shape"></path>
        </g>
    </g>
</svg>